<?xml version="1.0" encoding="UTF-8"?>
<svg width="10px" height="12px" viewBox="0 0 10 12" version="1.1" xmlns="http://www.w3.org/2000/svg" xmlns:xlink="http://www.w3.org/1999/xlink">
    <!-- Generator: Sketch 56.2 (81672) - https://sketch.com -->
    <title>Location</title>
    <desc>Created with Sketch.</desc>
    <g id="Deliverables-II" stroke="none" stroke-width="1" fill="none" fill-rule="evenodd">
        <path d="M2.46336157,9.89662545 C3.20779891,10.6714143 4.02608294,11.3667496 4.90578806,11.9720727 C4.96277891,12.0093091 5.03546838,12.0093091 5.09245923,11.9720727 C5.97216435,11.3667496 6.79044838,10.6714143 7.53488572,9.89662545 C9.1468872,8.21718719 10,6.5053482 10,4.94111256 C10.0034811,2.21945056 7.75993787,0 5.00174053,0 C2.24354319,0 0,2.21945056 0,4.94111256 C0,6.50354816 0.85136009,8.21718719 2.46336157,9.89662545 Z M5.00174053,2.70006151 C5.74703492,2.70006151 6.41890987,3.16338246 6.70395843,3.87389994 C6.98900699,4.58441742 6.83106868,5.40214505 6.30381638,5.94564056 C5.77656408,6.48913607 4.98387744,6.65131955 4.29551798,6.35653788 C3.60715852,6.06175621 3.15874735,5.36808751 3.15945229,4.59910477 C3.16137583,3.55041235 3.98535194,2.70105178 5.00174053,2.70006151 L5.00174053,2.70006151 Z" id="Location" fill="#F36767" fill-rule="nonzero"></path>
    </g>
</svg>